<svg xmlns="http://www.w3.org/2000/svg" xmlns:xlink="http://www.w3.org/1999/xlink" width="1920" zoomAndPan="magnify" viewBox="0 0 1440 809.999993" height="1080" preserveAspectRatio="xMidYMid meet" version="1.0"><defs><clipPath id="9ef87e6fdd"><path d="M 425 0 L 1373.726562 0 L 1373.726562 809.5625 L 425 809.5625 Z M 425 0 " clip-rule="nonzero"/></clipPath></defs><g clip-path="url(#9ef87e6fdd)"><path fill="#265894" d="M 1215.5625 53.28125 L 1320.640625 341.136719 L 1189.5625 389.144531 L 1084.300781 101.285156 Z M 1229.921875 0.183594 C 1227.015625 0 1224.105469 0.546875 1221.378906 1.636719 L 1046.488281 65.464844 C 1039.035156 68.191406 1033.582031 74.554688 1031.761719 82.191406 L 677.800781 125.835938 L 453.101562 265.671875 C 425.828125 282.582031 417.285156 318.589844 434.375 345.863281 C 443.644531 360.957031 459.28125 370.960938 476.734375 373.140625 C 545.636719 381.871094 615.808594 372.777344 680.347656 346.957031 L 752.15625 318.40625 C 760.703125 314.953125 770.519531 316.953125 777.0625 323.5 L 995.402344 540.4375 C 1013.765625 558.4375 1013.945312 587.898438 995.765625 606.261719 C 977.769531 624.449219 948.316406 624.628906 929.957031 606.628906 C 927.046875 603.71875 924.5 600.445312 922.503906 596.988281 C 915.777344 586.078125 901.414062 582.804688 890.503906 589.535156 C 879.960938 596.082031 876.507812 609.71875 882.507812 620.628906 C 895.597656 642.632812 888.507812 671.179688 866.507812 684.457031 C 845.964844 696.640625 819.421875 691.546875 805.242188 672.273438 C 797.242188 662.269531 782.519531 660.453125 772.519531 668.453125 C 762.882812 676.089844 760.703125 690.09375 767.972656 700.09375 C 780.882812 717.734375 776.882812 742.464844 759.246094 755.375 C 745.613281 765.375 727.25 765.558594 713.253906 755.921875 L 679.621094 788.652344 C 715.617188 819.746094 769.972656 815.746094 801.0625 779.742188 C 812.152344 767.011719 819.058594 751.554688 821.421875 734.828125 C 871.417969 746.464844 921.410156 715.1875 933.046875 665.179688 C 933.226562 664.089844 933.59375 663 933.773438 661.90625 C 982.496094 677.910156 1035.21875 651.179688 1051.214844 602.445312 C 1062.125 568.984375 1053.398438 532.253906 1028.308594 507.339844 L 809.96875 290.402344 C 790.152344 270.765625 760.703125 264.761719 734.886719 275.128906 L 663.078125 303.675781 C 605.808594 326.589844 543.636719 334.589844 482.550781 326.769531 C 476.007812 326.042969 471.460938 320.042969 472.371094 313.679688 C 472.734375 310.222656 474.734375 306.949219 477.824219 305.132812 L 693.800781 170.75 L 1044.488281 127.472656 L 1142.296875 395.324219 C 1101.574219 422.785156 1056.488281 442.96875 1008.855469 455.152344 L 1046.671875 492.792969 C 1087.574219 479.699219 1126.480469 461.335938 1162.292969 437.878906 C 1168.476562 442.242188 1176.472656 443.332031 1183.5625 440.605469 L 1358.453125 376.777344 C 1370.453125 372.414062 1376.816406 358.957031 1372.453125 346.957031 L 1251.191406 15.273438 C 1247.921875 6.363281 1239.375 0.183594 1229.921875 0 L 1229.921875 0.183594 " fill-opacity="1" fill-rule="nonzero"/></g><path fill="#265894" d="M 655.984375 618.265625 C 677.800781 617.539062 696.164062 634.632812 696.890625 656.453125 C 697.253906 667.542969 693.074219 678.273438 685.074219 686.09375 L 630.351562 739.007812 C 614.355469 753.917969 589.265625 752.828125 574.539062 736.644531 C 560.359375 721.1875 560.722656 697.367188 575.269531 682.273438 L 629.988281 629.175781 C 637.078125 622.628906 646.351562 618.628906 655.984375 618.265625 Z M 558.542969 520.617188 C 584.175781 519.523438 605.808594 539.527344 606.902344 565.167969 C 607.445312 578.257812 602.539062 590.808594 593.265625 600.082031 L 515.273438 675.546875 C 496.730469 693.367188 467.28125 692.640625 449.464844 674.089844 C 432.011719 655.726562 432.375 626.628906 450.554688 608.808594 L 528.546875 533.164062 C 536.726562 525.523438 547.269531 520.980469 558.542969 520.617188 Z M 446.554688 435.148438 C 472.1875 434.605469 493.640625 454.789062 494.367188 480.609375 C 494.550781 493.519531 489.460938 506.066406 480.1875 515.160156 L 402.378906 590.808594 C 383.835938 608.628906 354.382812 608.265625 336.566406 589.714844 C 318.570312 571.351562 319.113281 541.710938 337.476562 523.890625 L 415.46875 448.242188 C 423.832031 440.242188 434.917969 435.511719 446.554688 435.148438 Z M 448.371094 388.597656 C 424.011719 388.414062 400.558594 397.871094 382.925781 414.78125 L 305.117188 490.429688 C 268.210938 526.253906 267.300781 585.167969 303.117188 622.082031 C 325.660156 645.359375 358.566406 655.179688 390.015625 648.269531 C 393.289062 699.546875 437.648438 738.464844 488.914062 735.191406 C 499.09375 734.460938 509.09375 732.28125 518.546875 728.28125 C 528.363281 774.832031 573.996094 804.652344 620.535156 795.015625 C 636.351562 791.5625 651.078125 783.921875 662.710938 772.46875 L 717.253906 719.734375 C 751.429688 686.820312 752.339844 632.265625 719.253906 598.082031 C 701.980469 580.261719 678.164062 570.804688 653.441406 571.894531 C 656.167969 520.433594 616.71875 476.609375 565.449219 474.0625 C 557.089844 473.519531 548.542969 474.246094 540.363281 476.0625 C 537.273438 427.332031 496.914062 389.144531 448.007812 388.960938 L 448.371094 388.597656 " fill-opacity="1" fill-rule="nonzero"/><path fill="#265894" d="M 321.660156 127.835938 L 418.195312 207.300781 L 223.125 443.695312 L 126.773438 364.230469 Z M 318.933594 71.644531 C 311.84375 71.644531 304.933594 74.738281 300.570312 80.191406 L 75.867188 352.410156 C 67.6875 362.414062 69.140625 376.960938 79.140625 385.144531 C 79.140625 385.144531 79.140625 385.324219 79.140625 385.324219 L 214.582031 496.976562 C 220.945312 502.25 229.304688 503.886719 236.941406 501.160156 C 244.757812 506.433594 252.941406 511.339844 261.484375 515.523438 L 260.9375 515.523438 C 266.574219 500.792969 275.300781 487.339844 286.390625 476.0625 C 279.117188 472.789062 272.210938 468.972656 265.664062 464.789062 L 452.007812 238.757812 L 536.726562 186.023438 C 514.003906 185.480469 491.460938 186.570312 468.734375 189.296875 L 333.292969 77.464844 C 329.296875 74.191406 324.203125 72.191406 318.933594 72.191406 L 318.933594 71.644531 " fill-opacity="1" fill-rule="nonzero"/></svg>