<svg xmlns="http://www.w3.org/2000/svg" xmlns:xlink="http://www.w3.org/1999/xlink" width="1920" zoomAndPan="magnify" viewBox="0 0 1440 809.999993" height="1080" preserveAspectRatio="xMidYMid meet" version="1.0"><defs><clipPath id="0d3fdee0fb"><path d="M 173.777344 0 L 1266.527344 0 L 1266.527344 810 L 173.777344 810 Z M 173.777344 0 " clip-rule="nonzero"/></clipPath></defs><g clip-path="url(#0d3fdee0fb)"><path fill="#265894" d="M 276.222656 -4.664062 C 220.019531 -4.664062 174.046875 41.191406 173.777344 97.355469 C 173.777344 97.355469 173.777344 97.445312 173.777344 97.53125 C 173.777344 97.621094 173.777344 97.621094 173.777344 97.710938 L 173.777344 711.957031 C 173.777344 768.210938 219.933594 814.332031 276.222656 814.332031 L 1164.082031 814.332031 C 1220.375 814.332031 1266.527344 768.210938 1266.527344 711.957031 L 1266.527344 97.710938 C 1266.527344 97.621094 1266.527344 97.621094 1266.527344 97.53125 C 1266.527344 97.445312 1266.527344 97.355469 1266.527344 97.355469 C 1266.261719 41.191406 1220.285156 -4.664062 1164.082031 -4.664062 Z M 335.449219 40.835938 L 1104.945312 40.835938 L 720.152344 308.859375 Z M 259.683594 43.5 L 720.152344 364.3125 L 1180.714844 43.5 C 1204.011719 50.523438 1220.820312 71.671875 1220.996094 97.445312 C 1220.910156 102.242188 1216.015625 111.839844 1208.902344 119.570312 C 1201.699219 127.390625 1194.675781 132.28125 1194.675781 132.28125 L 1194.585938 132.457031 L 720.152344 468.019531 L 245.722656 132.457031 L 245.632812 132.28125 C 245.632812 132.28125 238.605469 127.390625 231.402344 119.570312 C 224.289062 111.839844 219.398438 102.242188 219.308594 97.445312 C 219.488281 71.671875 236.296875 50.523438 259.683594 43.5 Z M 219.308594 169.425781 C 219.308594 169.425781 219.488281 169.601562 219.488281 169.601562 L 219.664062 169.691406 L 219.664062 169.78125 L 287.605469 217.769531 L 287.605469 768.832031 L 276.222656 768.832031 C 244.566406 768.832031 219.308594 743.59375 219.308594 711.957031 Z M 1220.996094 169.425781 L 1220.996094 711.957031 C 1220.996094 743.59375 1195.742188 768.832031 1164.082031 768.832031 L 1152.699219 768.832031 L 1152.699219 217.769531 L 1220.640625 169.78125 L 1220.640625 169.691406 C 1220.640625 169.691406 1220.996094 169.425781 1220.996094 169.425781 Z M 333.136719 249.9375 L 720.152344 523.648438 L 1107.167969 249.9375 L 1107.167969 768.832031 L 333.136719 768.832031 Z M 333.136719 249.9375 " fill-opacity="1" fill-rule="nonzero"/></g></svg>