<svg xmlns="http://www.w3.org/2000/svg" xmlns:xlink="http://www.w3.org/1999/xlink" width="1920" zoomAndPan="magnify" viewBox="0 0 1440 809.999993" height="1080" preserveAspectRatio="xMidYMid meet" version="1.0"><path fill="#265894" d="M 719.824219 73.03125 C 827.90625 73.03125 840.683594 73.386719 883.457031 75.339844 C 922.855469 77.113281 944.328125 83.679688 958.703125 89.359375 C 977.515625 96.636719 991.003906 105.507812 1005.203125 119.707031 C 1019.402344 133.90625 1028.097656 147.394531 1035.550781 166.207031 C 1041.054688 180.402344 1047.621094 201.878906 1049.574219 241.457031 C 1051.523438 284.226562 1051.878906 297.007812 1051.878906 405.089844 C 1051.878906 513.171875 1051.523438 525.949219 1049.574219 568.722656 C 1047.796875 608.121094 1041.230469 629.597656 1035.550781 643.972656 C 1028.277344 662.785156 1019.402344 676.273438 1005.203125 690.46875 C 991.003906 704.667969 977.515625 713.363281 958.703125 720.820312 C 944.507812 726.320312 923.03125 732.886719 883.457031 734.839844 C 840.683594 736.792969 827.90625 737.144531 719.824219 737.144531 C 611.738281 737.144531 598.960938 736.792969 556.191406 734.839844 C 516.789062 733.0625 495.316406 726.496094 480.941406 720.820312 C 462.128906 713.542969 448.640625 704.667969 434.441406 690.46875 C 420.242188 676.273438 411.546875 662.785156 404.09375 643.972656 C 398.589844 629.773438 392.023438 608.296875 390.074219 568.722656 C 388.121094 525.949219 387.765625 513.171875 387.765625 405.089844 C 387.765625 297.007812 388.121094 284.226562 390.074219 241.457031 C 391.847656 202.054688 398.414062 180.582031 404.09375 166.207031 C 411.371094 147.394531 420.242188 133.90625 434.441406 119.707031 C 448.640625 105.507812 462.128906 96.8125 480.941406 89.359375 C 495.136719 83.855469 516.613281 77.289062 556.191406 75.339844 C 598.960938 73.386719 611.738281 73.03125 719.824219 73.03125 M 719.824219 0.0898438 C 609.789062 0.0898438 596.121094 0.621094 552.816406 2.574219 C 509.691406 4.527344 480.230469 11.445312 454.496094 21.386719 C 427.875 31.679688 405.335938 45.523438 382.796875 68.0625 C 360.433594 90.601562 346.589844 113.140625 336.296875 139.761719 C 326.359375 165.496094 319.4375 194.957031 317.484375 238.082031 C 315.53125 281.210938 315 295.054688 315 404.910156 C 315 514.945312 315.53125 528.613281 317.484375 571.917969 C 319.4375 615.042969 326.359375 644.503906 336.296875 670.238281 C 346.589844 696.859375 360.433594 719.398438 382.972656 741.9375 C 405.511719 764.476562 428.050781 778.320312 454.671875 788.613281 C 480.40625 798.554688 509.867188 805.472656 552.996094 807.425781 C 596.121094 809.378906 609.964844 809.910156 720 809.910156 C 830.035156 809.910156 843.699219 809.378906 887.003906 807.425781 C 930.132812 805.472656 959.59375 798.554688 985.328125 788.613281 C 1011.949219 778.320312 1034.488281 764.476562 1057.027344 741.9375 C 1079.566406 719.398438 1093.410156 696.859375 1103.703125 670.238281 C 1113.640625 644.503906 1120.5625 615.042969 1122.515625 571.917969 C 1124.46875 528.789062 1125 514.945312 1125 404.910156 C 1125 294.875 1124.46875 281.210938 1122.515625 237.90625 C 1120.5625 194.78125 1113.640625 165.320312 1103.703125 139.585938 C 1093.410156 112.964844 1079.566406 90.425781 1057.027344 67.882812 C 1034.488281 45.34375 1011.949219 31.503906 985.328125 21.207031 C 959.59375 11.269531 930.132812 4.347656 887.003906 2.394531 C 843.699219 0.621094 829.859375 0.0898438 719.824219 0.0898438 " fill-opacity="1" fill-rule="nonzero"/><path fill="#265894" d="M 719.824219 197.085938 C 604.996094 197.085938 512 290.085938 512 404.910156 C 512 519.738281 605.171875 612.914062 720 612.914062 C 834.828125 612.914062 928 519.914062 928 404.910156 C 927.824219 290.085938 834.648438 197.085938 719.824219 197.085938 M 719.824219 539.96875 C 645.28125 539.96875 584.941406 479.628906 584.941406 405.089844 C 584.941406 330.550781 645.28125 270.207031 719.824219 270.207031 C 794.363281 270.207031 854.703125 330.550781 854.703125 405.089844 C 854.882812 479.449219 794.363281 539.96875 719.824219 539.96875 " fill-opacity="1" fill-rule="nonzero"/><path fill="#265894" d="M 984.617188 188.921875 C 984.617188 215.722656 962.785156 237.550781 935.988281 237.550781 C 909.1875 237.550781 887.359375 215.722656 887.359375 188.921875 C 887.359375 162.125 909.1875 140.292969 935.988281 140.292969 C 962.785156 140.292969 984.617188 161.945312 984.617188 188.921875 " fill-opacity="1" fill-rule="nonzero"/></svg>